<svg width="64" height="64" viewBox="0 0 64 64" fill="none" xmlns="http://www.w3.org/2000/svg">
  <path d="M16 18C16 16.8954 16.8954 16 18 16H27.5L30 18.5H44C45.1046 18.5 46 19.3954 46 20.5V44C46 45.1046 45.1046 46 44 46H18C16.8954 46 16 45.1046 16 44V18Z" fill="#E33A3A"/>
  <path d="M16 24C16 22.8954 16.8954 22 18 22H28C28.5304 22 29.0391 22.2107 29.4142 22.5858L30.4142 23.5858C30.7893 23.9609 31.298 24.1716 31.8284 24.1716H44C45.1046 24.1716 46 25.067 46 26.1716V44C46 45.1046 45.1046 46 44 46H18C16.8954 46 16 45.1046 16 44V24Z" fill="#C92E2E"/>
</svg>
