<svg width="64" height="64" viewBox="0 0 64 64" fill="none" xmlns="http://www.w3.org/2000/svg">
  <path d="M14 19C14 16.7909 15.7909 15 18 15H28L31.5 18.5H46C48.2091 18.5 50 20.2909 50 22.5V43C50 45.2091 48.2091 47 46 47H18C15.7909 47 14 45.2091 14 43V19Z" fill="#E33A3A"/>
  <path d="M14 23C14 20.7909 15.7909 19 18 19H27.4C28.4609 19 29.4783 19.4214 30.2284 20.1716L31.1716 21.1147C31.9217 21.8649 32.9391 22.2863 34 22.2863H46C48.2091 22.2863 50 24.0771 50 26.2863V43C50 45.2091 48.2091 47 46 47H18C15.7909 47 14 45.2091 14 43V23Z" fill="#C92E2E"/>
  <path d="M14 27.5H50" stroke="#0B0F14" stroke-width="2.4" stroke-linecap="round"/>
  <path d="M18 19H27.4C28.4609 19 29.4783 19.4214 30.2284 20.1716L31.1716 21.1147C31.9217 21.8649 32.9391 22.2863 34 22.2863H46C48.2091 22.2863 50 24.0771 50 26.2863V43C50 45.2091 48.2091 47 46 47H18C15.7909 47 14 45.2091 14 43V23C14 20.7909 15.7909 19 18 19Z" stroke="#0B0F14" stroke-width="2.4" stroke-linejoin="round"/>
</svg>
