<svg width="64" height="64" viewBox="0 0 64 64" fill="none" xmlns="http://www.w3.org/2000/svg">
  <path d="M12 20C12 17.7909 13.7909 16 16 16H26L30 20H48C50.2091 20 52 21.7909 52 24V44C52 46.2091 50.2091 48 48 48H16C13.7909 48 12 46.2091 12 44V20Z" fill="#D9BE88"/>
  <path d="M12 22C12 19.7909 13.7909 18 16 18H25.2C26.2609 18 27.2783 18.4214 28.0284 19.1716L30 21.1431C30.7501 21.8933 31.7675 22.3147 32.8284 22.3147H48C50.2091 22.3147 52 24.1055 52 26.3147V44C52 46.2091 50.2091 48 48 48H16C13.7909 48 12 46.2091 12 44V22Z" fill="#E7CEA0"/>
  <path d="M12 28H52V44C52 46.2091 50.2091 48 48 48H16C13.7909 48 12 46.2091 12 44V28Z" fill="#CFAE72"/>
  <path d="M16 18H25.2C26.2609 18 27.2783 18.4214 28.0284 19.1716L30 21.1431C30.7501 21.8933 31.7675 22.3147 32.8284 22.3147H48C50.2091 22.3147 52 24.1055 52 26.3147V44C52 46.2091 50.2091 48 48 48H16C13.7909 48 12 46.2091 12 44V22C12 19.7909 13.7909 18 16 18Z" stroke="#8A6A3F" stroke-width="2" stroke-linejoin="round"/>
  <path d="M12 28H52" stroke="#8A6A3F" stroke-width="2"/>
</svg>
